HIERARCHY
ROOT joint_Root
{
	OFFSET 0.0 0.0 0.0
	CHANNELS 6 Xposition Yposition Zposition Zrotation Xrotation Yrotation 
	JOINT Hips
	{
		OFFSET -0.726466 93.3139 -2.00062
		CHANNELS 6 Xposition Yposition Zposition Zrotation Xrotation Yrotation 
		JOINT Spine
		{
			OFFSET 15.7357 0.0 0.0
			CHANNELS 6 Xposition Yposition Zposition Zrotation Xrotation Yrotation 
			JOINT Chest
			{
				OFFSET 8.98455 -0.406207 0.0
				CHANNELS 6 Xposition Yposition Zposition Zrotation Xrotation Yrotation 
				JOINT Neck
				{
					OFFSET 16.3773 0.0 0.0
					CHANNELS 6 Xposition Yposition Zposition Zrotation Xrotation Yrotation 
					JOINT Head
					{
						OFFSET 6.45672 0.0 0.0
						CHANNELS 6 Xposition Yposition Zposition Zrotation Xrotation Yrotation 
						End Site
						{
							OFFSET 0.0 0.0 0.0
						}
					}
				}
				JOINT Shoulder_L
				{
					OFFSET 12.9942 -0.242716 4.98039
					CHANNELS 6 Xposition Yposition Zposition Zrotation Xrotation Yrotation 
					JOINT UpperArm_L
					{
						OFFSET 5.34809 0.0 0.0
						CHANNELS 6 Xposition Yposition Zposition Zrotation Xrotation Yrotation 
						JOINT LowerArm_L
						{
							OFFSET 24.3286 1.87007e-05 0.0
							CHANNELS 6 Xposition Yposition Zposition Zrotation Xrotation Yrotation 
							JOINT Hand_L
							{
								OFFSET 22.2916 0.0 0.0
								CHANNELS 6 Xposition Yposition Zposition Zrotation Xrotation Yrotation 
								End Site
								{
									OFFSET 0.0 0.0 0.0
								}
							}
						}
					}
				}
				JOINT Shoulder_R
				{
					OFFSET 12.9945 -0.242716 -4.98039
					CHANNELS 6 Xposition Yposition Zposition Zrotation Xrotation Yrotation 
					JOINT UpperArm_R
					{
						OFFSET -5.34813 0.0 0.0
						CHANNELS 6 Xposition Yposition Zposition Zrotation Xrotation Yrotation 
						JOINT LowerArm_R
						{
							OFFSET -24.3289 0.000322201 0.0
							CHANNELS 6 Xposition Yposition Zposition Zrotation Xrotation Yrotation 
							JOINT Hand_R
							{
								OFFSET -22.2915 -0.000108084 0.0
								CHANNELS 6 Xposition Yposition Zposition Zrotation Xrotation Yrotation 
								End Site
								{
									OFFSET 0.0 0.0 0.0
								}
							}
						}
					}
				}
			}
		}
		JOINT UpperLeg_L
		{
			OFFSET -2.19248 -6.46944 0.0
			CHANNELS 6 Xposition Yposition Zposition Zrotation Xrotation Yrotation 
			JOINT LowerLeg_L
			{
				OFFSET 39.0811 0.0 -1.23785e-05
				CHANNELS 6 Xposition Yposition Zposition Zrotation Xrotation Yrotation 
				JOINT Foot_L
				{
					OFFSET 40.9854 0.0 -1.26872e-05
					CHANNELS 6 Xposition Yposition Zposition Zrotation Xrotation Yrotation 
					JOINT Toes_L
					{
						OFFSET 11.7543 0.0 0.0
						CHANNELS 6 Xposition Yposition Zposition Zrotation Xrotation Yrotation 
						End Site
						{
							OFFSET 0.0 0.0 0.0
						}
					}
				}
			}
		}
		JOINT UpperLeg_R
		{
			OFFSET -2.19251 6.46944 0.0
			CHANNELS 6 Xposition Yposition Zposition Zrotation Xrotation Yrotation 
			JOINT LowerLeg_R
			{
				OFFSET -39.0811 -0.00228153 -0.0401928
				CHANNELS 6 Xposition Yposition Zposition Zrotation Xrotation Yrotation 
				JOINT Foot_R
				{
					OFFSET -40.9854 0.0 0.0
					CHANNELS 6 Xposition Yposition Zposition Zrotation Xrotation Yrotation 
					JOINT Toes_R
					{
						OFFSET -11.7543 0.0 0.0
						CHANNELS 6 Xposition Yposition Zposition Zrotation Xrotation Yrotation 
						End Site
						{
							OFFSET 0.0 0.0 0.0
						}
					}
				}
			}
		}
	}
}
MOTION
Frames:	4
Frame Time:	0.0333333
0.000000 0.000000 0.000000 0.000000 0.000000 -0.000000 -184.719000 89.884100 204.132000 26.176100 84.915800 71.656100 15.735700 0.000005 -0.000001 82.238300 82.356300 -79.249800 8.984550 -0.406207 -0.000000 7.446090 -2.065010 6.105710 16.377300 -0.000001 -0.000001 3.082770 1.405660 -0.138110 6.456720 -0.000001 -0.000000 1.929620 4.876490 -0.890011 12.994200 -0.242716 4.980390 -89.612000 -1.200970 -72.093800 5.348090 -0.000007 -0.000001 -63.449700 38.631400 -27.566500 24.328600 0.000019 0.000005 0.796575 1.163650 -34.397400 22.291600 -0.000001 0.000005 8.523890 5.527650 -7.691610 12.994500 -0.242716 -4.980390 87.816200 6.175580 -70.481800 -5.348130 -0.000001 -0.000004 -67.123800 19.866700 -7.782130 -24.328900 0.000322 -0.000009 1.183530 12.136700 -5.616990 -22.291500 -0.000108 -0.000004 11.358700 5.285590 0.472760 -2.192480 -6.469440 -0.000000 -169.682000 -6.277680 -9.137570 39.081100 -0.000007 -0.000012 0.060158 -0.021799 70.076100 40.985400 -0.000006 -0.000013 8.714510 -8.649300 -46.642400 11.754300 -0.000000 0.000003 -0.005422 -0.065497 -19.242000 -2.192510 6.469440 -0.000001 -173.202000 14.647300 167.482000 -39.081100 -0.002282 -0.040193 -0.079277 0.127700 32.887300 -40.985400 0.000008 0.000006 4.563700 -2.267160 -63.603500 -11.754300 -0.000006 -0.000006 -0.011377 -0.113655 -21.205600
0.000000 0.000000 0.000000 0.000000 0.000000 -0.000000 -182.160000 90.533600 204.440000 46.338800 84.736700 51.437100 15.735700 0.000005 -0.000001 86.359600 82.350500 -83.774900 8.984550 -0.406207 -0.000000 7.530110 -0.972831 5.228230 16.377300 -0.000001 -0.000001 3.128670 1.942960 -0.036787 6.456720 -0.000001 -0.000000 2.005320 4.639200 -1.105780 12.994200 -0.242716 4.980390 -89.543800 -1.371510 -71.599000 5.348090 -0.000007 -0.000001 -65.982100 38.331000 -23.570500 24.328600 0.000019 0.000005 1.697180 2.886160 -30.475400 22.291600 -0.000001 0.000005 6.857700 5.502430 -6.630850 12.994500 -0.242716 -4.980390 88.022600 5.904650 -71.447100 -5.348130 -0.000001 -0.000004 -67.360100 22.423000 -11.045800 -24.328900 0.000322 -0.000009 1.512320 11.155200 -7.776140 -22.291500 -0.000108 -0.000004 11.196800 5.307840 -0.148643 -2.192480 -6.469440 -0.000000 -171.746000 -7.853270 -13.156900 39.081100 -0.000007 -0.000012 0.038901 -0.013948 70.266600 40.985400 -0.000006 -0.000013 8.755820 -9.184840 -48.454700 11.754300 -0.000000 0.000003 -0.005485 -0.066096 -19.266400 -2.192510 6.469440 -0.000001 -174.452000 14.925800 170.618000 -39.081100 -0.002282 -0.040193 -0.069654 0.123307 30.610700 -40.985400 0.000008 0.000006 4.742460 -0.382249 -64.442900 -11.754300 -0.000006 -0.000006 -0.012106 -0.118752 -21.414300
0.000000 0.000000 0.000000 0.000000 0.000000 -0.000000 -179.756000 91.028000 204.756000 60.642300 83.824000 36.922700 15.735700 0.000005 -0.000001 89.840500 82.373000 -87.546500 8.984550 -0.406207 -0.000000 7.492990 -0.047683 4.586370 16.377300 -0.000001 -0.000001 3.206360 2.641060 -0.003772 6.456720 -0.000001 -0.000000 2.100740 4.654200 -1.612240 12.994200 -0.242716 4.980390 -89.487600 -1.474550 -70.833600 5.348090 -0.000007 -0.000001 -68.656900 37.220700 -19.369300 24.328600 0.000019 0.000005 2.050540 4.165560 -26.238900 22.291600 -0.000001 0.000005 5.870530 5.483770 -5.893150 12.994500 -0.242716 -4.980390 88.219300 5.625530 -72.404100 -5.348130 -0.000001 -0.000004 -66.754000 25.313700 -14.643500 -24.328900 0.000322 -0.000009 1.794410 9.340400 -10.932000 -22.291500 -0.000108 -0.000004 10.428800 5.330660 -0.805122 -2.192480 -6.469440 -0.000000 -173.425000 -8.821250 -16.556800 39.081100 -0.000007 -0.000012 0.024538 -0.010083 67.651200 40.985400 -0.000006 -0.000013 8.231060 -6.995980 -51.117700 11.754300 -0.000000 0.000003 -0.006137 -0.072084 -19.510600 -2.192510 6.469440 -0.000001 -175.467000 15.677100 173.428000 -39.081100 -0.002282 -0.040193 -0.061528 0.119976 28.386100 -40.985400 0.000008 0.000006 5.027240 1.981650 -65.201500 -11.754300 -0.000006 -0.000006 -0.011958 -0.117727 -21.372300
0.000000 0.000000 0.000000 0.000000 0.000000 -0.000000 -177.278000 91.359300 205.062000 71.141700 82.235100 26.393400 15.735700 0.000005 -0.000001 93.680300 82.279000 -91.668300 8.984550 -0.406207 -0.000000 7.630820 0.984949 3.954060 16.377300 -0.000001 -0.000001 3.147730 3.396350 -0.034346 6.456720 -0.000001 -0.000000 2.149350 4.842090 -2.053340 12.994200 -0.242716 4.980390 -89.511400 -1.343650 -70.016000 5.348090 -0.000007 -0.000001 -71.145700 34.806000 -14.907600 24.328600 0.000019 0.000005 2.302050 5.585070 -22.443100 22.291600 -0.000001 0.000005 5.562980 5.461570 -5.059050 12.994500 -0.242716 -4.980390 88.280400 5.718940 -73.233300 -5.348130 -0.000001 -0.000004 -64.840400 28.329400 -18.787700 -24.328900 0.000322 -0.000009 1.901090 7.232610 -14.778200 -22.291500 -0.000108 -0.000004 9.705220 5.355750 -1.550910 -2.192480 -6.469440 -0.000000 -174.754000 -9.687280 -18.464900 39.081100 -0.000007 -0.000012 0.018949 -0.010165 61.776100 40.985400 -0.000006 -0.000013 7.215790 -5.053560 -53.640000 11.754300 -0.000000 0.000003 -0.005656 -0.067686 -19.331300 -2.192510 6.469440 -0.000001 -176.519000 15.794400 176.250000 -39.081100 -0.002282 -0.040193 -0.067920 0.142678 26.529700 -40.985400 0.000008 0.000006 5.159090 4.058880 -66.110700 -11.754300 -0.000006 -0.000006 -0.012658 -0.122527 -21.568900
